<svg xmlns="http://www.w3.org/2000/svg" viewBox="0 0 64 64">
  <path d="M32 56 C30 40 30 26 34 12" fill="none" stroke="#2d6a1e" stroke-width="4" stroke-linecap="round"/>
  <path d="M33 18 C26 16 20 18 15 24 C22 26 29 24 33 18 Z" fill="#4c9a3c" stroke="#2d6a1e" stroke-width="2"/>
  <path d="M32 28 C24 26 17 29 12 36 C20 38 28 35 32 28 Z" fill="#5fae4a" stroke="#2d6a1e" stroke-width="2"/>
  <path d="M31 38 C24 37 17 40 13 47 C21 49 28 45 31 38 Z" fill="#4c9a3c" stroke="#2d6a1e" stroke-width="2"/>
  <path d="M34 20 C41 17 47 18 52 24 C45 27 38 25 34 20 Z" fill="#5fae4a" stroke="#2d6a1e" stroke-width="2"/>
  <path d="M33 30 C41 28 48 31 53 38 C45 40 37 36 33 30 Z" fill="#4c9a3c" stroke="#2d6a1e" stroke-width="2"/>
  <path d="M32 40 C40 39 47 42 51 49 C43 51 36 46 32 40 Z" fill="#5fae4a" stroke="#2d6a1e" stroke-width="2"/>
</svg>
